<svg height="1000" legacy-metrics="false" node-id="1" sillyvg="true" template-height="1000" template-width="1000" version="1.1" viewBox="0 0 1000 1000" width="1000" xmlns="http://www.w3.org/2000/svg" xmlns:xlink="http://www.w3.org/1999/xlink"><defs node-id="179"><clipPath id="XMLID_2_" node-id="7"><path d="M 412.09 745.19 C 412.09 745.19 -51.73 709.68 75.07 346.51 C 186.72 26.75 429.24 139.57 600.90 199.12 C 772.57 258.66 1055.29 406.88 910.88 645.23 C 764.61 886.65 669.17 649.44 575.52 625.27 C 481.87 601.10 374.47 634.50 412.09 745.19 Z" fill="#000000" fill-rule="nonzero" node-id="182" stroke="none" target-height="622.4671" target-width="897.4165" target-x="53.13986" target-y="130.25696"></path></clipPath><clipPath id="XMLID_3_" node-id="37"><path d="M 269.81 706.44 L 268.47 715.50 C 268.47 715.50 240.02 717.04 219.26 744.72 L 308.45 744.72 L 308.45 706.66 L 269.81 706.44 Z" fill="#000000" fill-rule="nonzero" node-id="186" stroke="none" target-height="38.281006" target-width="89.188995" target-x="219.264" target-y="706.441"></path></clipPath><clipPath id="SVGID_1_" node-id="46"><path d="M 406.66 776.08 L 405.33 767.02 L 402.21 766.64 L 398.91 766.01 L 393.99 764.71 L 388.73 762.88 L 382.41 760.04 L 378.24 757.77 L 373.85 754.93 L 369.21 751.47 L 364.87 747.67 L 360.51 743.14 L 356.12 737.80 L 445.31 737.80 L 445.31 775.86 L 406.66 776.08 Z" fill="#000000" fill-rule="nonzero" node-id="190" stroke-linecap="butt" stroke-width="1" target-height="38.281006" target-width="89.188995" target-x="356.12344" target-y="737.8027"></path></clipPath><clipPath id="SVGID_5_" node-id="59"><path d="M 287.69 460.04 L 261.17 698.97 L 311.02 698.97 L 326.78 501.76 L 333.65 501.76 L 361.50 698.97 L 411.10 698.97 L 370.22 457.16 Z" fill="#000000" fill-rule="nonzero" node-id="194" stroke="none" target-height="241.81601" target-width="149.931" target-x="261.167" target-y="457.158"></path></clipPath><clipPath id="XMLID_5_" node-id="77"><path d="M 388.64 351.55 C 388.61 351.41 388.57 351.28 388.53 351.14 C 386.14 343.11 378.76 337.60 370.38 337.60 L 331.39 337.60 L 328.63 337.60 L 291.21 337.60 C 283.19 337.60 275.77 342.08 272.23 349.28 C 271.87 350.03 271.61 350.68 271.53 351.17 C 271.18 353.12 265.20 368.02 260.44 379.73 C 255.35 392.23 259.22 406.75 270.15 414.65 C 274.44 417.75 279.49 419.65 285.18 418.72 L 287.69 462.55 C 287.69 462.55 316.10 464.28 330.04 464.28 C 343.98 464.28 371.12 462.46 371.12 462.46 L 374.85 418.72 C 380.54 419.65 385.59 417.75 389.88 414.65 C 400.82 406.75 404.72 392.24 399.69 379.71 C 395.04 368.12 389.19 353.44 388.64 351.55 Z" fill="#000000" fill-rule="nonzero" node-id="198" stroke="none" target-height="126.672" target-width="143.55008" target-x="258.2628" target-y="337.604"></path></clipPath><clipPath id="XMLID_13_" node-id="99"><path d="M 802.42 745.19 L 543.02 745.19 C 530.88 745.19 520.95 735.26 520.95 723.12 L 520.95 345.07 C 520.95 332.93 530.88 323.00 543.02 323.00 L 802.42 323.00 C 814.55 323.00 824.49 332.93 824.49 345.07 L 824.49 723.12 C 824.48 735.26 814.55 745.19 802.42 745.19 Z" fill="#000000" fill-rule="nonzero" node-id="202" stroke="none" target-height="422.195" target-width="303.537" target-x="520.948" target-y="322.998"></path></clipPath><clipPath id="SVGID_8_" node-id="113"><path d="M 692.23 652.51 C 692.23 693.11 659.32 726.02 618.72 726.02 C 578.11 726.02 545.20 693.11 545.20 652.51 C 545.20 611.91 578.11 578.99 618.72 578.99 C 659.32 578.99 692.23 611.91 692.23 652.51 Z" fill="#000000" fill-rule="nonzero" node-id="206" stroke="none" target-height="147.03198" target-width="147.03198" target-x="545.2" target-y="578.992"></path></clipPath><clipPath id="XMLID_14_" node-id="125"><path d="M 629.60 254.37 L 434.65 254.37 C 428.26 254.37 423.03 249.14 423.03 242.75 L 423.03 117.44 C 423.03 111.05 428.26 105.82 434.65 105.82 L 629.60 105.82 C 636.00 105.82 641.23 111.05 641.23 117.44 L 641.23 242.75 C 641.22 249.14 636.00 254.37 629.60 254.37 Z" fill="#000000" fill-rule="nonzero" node-id="210" stroke="none" target-height="148.547" target-width="218.19598" target-x="423.029" target-y="105.821"></path></clipPath><clipPath id="XMLID_15_" node-id="132"><path d="M 622.00 261.44 L 427.05 261.44 C 420.65 261.44 415.43 256.21 415.43 249.82 L 415.43 124.52 C 415.43 118.12 420.65 112.89 427.05 112.89 L 622.00 112.89 C 628.39 112.89 633.62 118.12 633.62 124.52 L 633.62 249.82 C 633.62 256.21 628.39 261.44 622.00 261.44 Z" fill="#000000" fill-rule="nonzero" node-id="214" stroke="none" target-height="148.547" target-width="218.19598" target-x="415.425" target-y="112.895"></path></clipPath><clipPath id="XMLID_16_" node-id="139"><path d="M 610.88 267.76 L 415.93 267.76 C 409.54 267.76 404.31 262.53 404.31 256.14 L 404.31 130.83 C 404.31 124.44 409.54 119.21 415.93 119.21 L 610.88 119.21 C 617.28 119.21 622.51 124.44 622.51 130.83 L 622.51 256.14 C 622.50 262.53 617.28 267.76 610.88 267.76 Z" fill="#000000" fill-rule="nonzero" node-id="218" stroke="none" target-height="148.547" target-width="218.19598" target-x="404.31" target-y="119.211"></path></clipPath></defs><g node-id="487"><path d="M 412.09 745.19 C 412.09 745.19 -51.73 709.68 75.07 346.51 C 186.72 26.75 429.24 139.57 600.90 199.12 C 772.57 258.66 1055.29 406.88 910.88 645.23 C 764.61 886.65 669.17 649.44 575.52 625.27 C 481.87 601.10 374.47 634.50 412.09 745.19 Z" fill="#ffebe5" fill-rule="nonzero" group-id="1" node-id="226" stroke="none" target-height="622.4671" target-width="897.4165" target-x="53.13986" target-y="130.25696"></path><g node-id="495"><g clip-path="url(#XMLID_2_)" group-id="1,9" node-id="228"><path d="M 17.12 569.55 L 15.26 568.83 C 15.60 567.96 49.70 481.41 108.88 393.01 C 143.65 341.06 180.16 298.64 217.38 266.92 C 263.97 227.21 311.83 204.25 359.63 198.67 C 419.23 191.71 469.50 187.27 509.89 183.70 C 614.76 174.43 667.39 169.78 710.22 139.61 L 711.38 141.25 C 668.11 171.73 615.29 176.40 510.07 185.69 C 469.69 189.26 419.43 193.70 359.86 200.65 C 252.44 213.20 164.99 312.78 110.54 394.12 C 51.48 482.35 17.46 568.69 17.12 569.55 Z" fill="#ffffff" fill-rule="nonzero" group-id="1,9" node-id="230" stroke="none" target-height="429.94098" target-width="696.118" target-x="15.258" target-y="139.614"></path></g></g><g node-id="496"><g clip-path="url(#XMLID_2_)" group-id="1,10" node-id="233"><path d="M 15.61 678.85 L 13.74 678.16 C 14.12 677.13 52.46 574.73 112.89 479.74 C 148.42 423.91 184.52 381.51 220.20 353.73 C 264.94 318.88 309.16 307.02 351.62 318.48 C 450.93 345.29 548.29 322.40 612.47 298.48 C 686.74 270.79 739.68 233.25 749.35 216.79 L 751.07 217.80 C 741.26 234.52 687.87 272.51 613.17 300.35 C 548.71 324.37 450.92 347.36 351.10 320.42 C 309.28 309.12 265.65 320.86 221.43 355.30 C 185.93 382.95 149.98 425.17 114.58 480.81 C 54.26 575.62 15.99 677.83 15.61 678.85 Z" fill="#ffffff" fill-rule="nonzero" group-id="1,10" node-id="235" stroke="none" target-height="462.065" target-width="737.33795" target-x="13.736" target-y="216.789"></path></g></g><g node-id="497"><g clip-path="url(#XMLID_2_)" group-id="1,11" node-id="238"><path d="M 95.17 688.40 L 94.85 686.43 C 95.58 686.31 168.82 674.50 245.16 641.36 C 315.48 610.83 402.89 555.44 420.00 464.90 C 425.09 437.96 440.50 414.87 465.81 396.27 C 488.51 379.59 519.15 366.51 556.87 357.41 C 626.02 340.73 717.37 337.97 807.49 349.85 C 891.07 360.87 954.08 381.99 971.93 404.97 L 970.35 406.20 C 953.08 383.96 889.05 362.62 807.23 351.83 C 717.34 339.99 626.25 342.73 557.34 359.36 C 478.26 378.44 431.45 415.06 421.96 465.28 C 414.33 505.67 392.37 542.54 356.68 574.87 C 328.18 600.68 290.91 623.68 245.91 643.21 C 169.35 676.45 95.90 688.29 95.17 688.40 Z" fill="#ffffff" fill-rule="nonzero" group-id="1,11" node-id="240" stroke="none" target-height="345.82944" target-width="877.073" target-x="94.854" target-y="342.57455"></path></g></g><g clip-path="url(#XMLID_2_)" group-id="1,12" node-id="243"><path d="M 668.08 821.17 L 666.11 820.87 C 666.21 820.18 676.96 751.56 704.27 676.99 C 720.32 633.17 738.86 595.89 759.39 566.18 C 785.11 528.98 814.04 503.60 845.38 490.77 C 898.73 468.91 959.59 483.03 1026.26 532.73 L 1025.07 534.34 C 958.99 485.09 898.79 471.05 846.13 492.62 C 775.92 521.38 731.25 609.13 706.14 677.68 C 678.90 752.07 668.19 820.49 668.08 821.17 Z" fill="#ffffff" fill-rule="nonzero" group-id="1,12" node-id="245" stroke="none" target-height="340.37024" target-width="360.15906" target-x="666.105" target-y="480.80377"></path></g></g><path d="M 335.56 752.01 C 335.56 752.01 182.91 537.01 193.14 484.81 C 193.14 484.81 203.38 464.43 217.02 493.99 C 230.66 523.55 359.37 752.01 359.37 752.01 L 335.56 752.01 Z" fill="#30ad7f" fill-rule="nonzero" node-id="249" stroke="none" target-height="274.0255" target-width="166.66425" target-x="192.70377" target-y="477.9895"></path><path d="M 293.46 752.01 C 293.46 752.01 313.65 463.34 426.20 383.74 C 426.20 383.74 484.18 350.71 434.15 417.23 C 434.15 417.23 327.71 575.61 328.64 754.78 L 293.46 752.01 Z" fill="#38b385" fill-rule="nonzero" node-id="251" stroke="none" target-height="379.2433" target-width="160.98529" target-x="293.464" target-y="375.53772"></path><path d="M 280.56 634.57 C 280.29 634.57 280.02 634.47 279.83 634.25 C 236.85 588.14 207.82 499.36 207.53 498.47 C 207.36 497.94 207.65 497.38 208.18 497.21 C 208.71 497.04 209.26 497.33 209.44 497.85 C 209.72 498.74 238.62 587.11 281.29 632.89 C 281.67 633.29 281.64 633.93 281.24 634.30 C 281.05 634.48 280.80 634.57 280.56 634.57 Z" fill="#ffffff" fill-rule="nonzero" node-id="253" stroke="none" target-height="137.36398" target-width="74.02687" target-x="207.532" target-y="497.207"></path><path d="M 301.79 668.29 C 301.79 668.29 218.53 516.93 100.30 484.81 C -17.93 452.68 202.93 734.54 296.37 758.84 L 350.65 752.01 C 350.65 752.01 323.65 693.67 301.79 668.29 Z" fill="#adcd55" fill-rule="nonzero" node-id="255" stroke="none" target-height="276.5594" target-width="284.3017" target-x="66.34631" target-y="482.2766"></path><path d="M 517.14 368.12 C 517.14 368.12 331.50 354.08 312.91 752.01 L 392.29 752.01 C 392.29 752.01 542.53 528.44 517.14 368.12 Z" fill="#adcd55" fill-rule="nonzero" node-id="257" stroke="none" target-height="383.9191" target-width="207.08978" target-x="312.911" target-y="368.09488"></path><path d="M 413.43 752.01 C 413.43 752.01 506.44 610.21 508.05 525.44 C 508.05 525.44 518.16 503.29 473.19 535.30 C 394.41 591.35 392.29 752.02 392.29 752.02 L 413.43 752.02 Z" fill="#1d455d" fill-rule="nonzero" node-id="259" stroke="none" target-height="234.03363" target-width="116.714294" target-x="392.291" target-y="517.98236"></path><path d="M 426.20 752.01 L 517.14 758.84 C 517.14 758.84 527.00 686.12 503.50 662.62 C 480.01 639.13 522.76 563.34 519.19 537.57 C 519.19 537.57 516.38 513.90 496.68 542.79 C 476.98 571.67 402.70 699.68 426.20 752.01 Z" fill="#30ad7f" fill-rule="nonzero" node-id="261" stroke="none" target-height="230.37225" target-width="97.698425" target-x="421.6983" target-y="528.46375"></path><path d="M 285.23 720.08 C 284.89 720.08 284.55 719.91 284.37 719.59 C 226.02 620.85 103.91 516.93 102.69 515.89 C 102.27 515.54 102.21 514.90 102.57 514.48 C 102.93 514.06 103.56 514.01 103.98 514.37 C 105.21 515.41 227.56 619.53 286.09 718.58 C 286.37 719.05 286.21 719.66 285.74 719.95 C 285.58 720.04 285.40 720.08 285.23 720.08 Z" fill="#5a6c1c" fill-rule="nonzero" node-id="263" stroke="none" target-height="205.95087" target-width="183.85924" target-x="102.33675" target-y="514.1331"></path><path d="M 350.65 753.01 C 350.14 753.01 349.71 752.63 349.65 752.12 C 345.33 711.37 369.01 637.97 420.01 533.95 C 457.97 456.56 497.70 390.27 498.10 389.61 C 498.38 389.13 498.99 388.98 499.47 389.26 C 499.94 389.55 500.10 390.16 499.81 390.63 C 499.42 391.30 459.72 457.53 421.80 534.84 C 371.68 637.05 347.42 712.11 351.64 751.91 C 351.70 752.46 351.30 752.95 350.75 753.01 C 350.72 753.01 350.68 753.01 350.65 753.01 Z" fill="#5a6c1c" fill-rule="nonzero" node-id="265" stroke="none" target-height="363.86478" target-width="150.72198" target-x="349.20178" target-y="389.15024"></path><path d="M 463.08 755.78 C 462.71 755.78 462.36 755.58 462.19 755.23 C 445.06 721.47 458.28 670.01 472.39 632.78 C 487.63 592.57 507.16 559.85 507.35 559.52 C 507.63 559.05 508.25 558.90 508.72 559.18 C 509.20 559.46 509.35 560.08 509.07 560.55 C 508.87 560.88 489.43 593.47 474.25 633.52 C 460.29 670.36 447.17 721.22 463.97 754.33 C 464.22 754.82 464.02 755.42 463.53 755.67 C 463.39 755.75 463.23 755.78 463.08 755.78 Z" fill="#ffffff" fill-rule="nonzero" node-id="267" stroke="none" target-height="196.71277" target-width="55.104095" target-x="454.07465" target-y="559.06726"></path><path d="M 426.02 750.39 C 425.57 750.39 425.17 750.08 425.05 749.63 C 410.98 692.37 429.15 638.42 446.88 603.23 C 466.07 565.15 488.90 540.24 489.12 540.00 C 489.50 539.59 490.13 539.57 490.54 539.94 C 490.94 540.32 490.97 540.95 490.59 541.35 C 490.37 541.60 467.70 566.34 448.64 604.18 C 431.08 639.05 413.07 692.51 427.00 749.15 C 427.13 749.68 426.80 750.23 426.26 750.36 C 426.18 750.38 426.10 750.39 426.02 750.39 Z" fill="#ffffff" fill-rule="nonzero" node-id="269" stroke="none" target-height="210.71149" target-width="70.79443" target-x="420.06305" target-y="539.6765"></path><path d="M 437.13 503.13 C 436.94 503.13 436.75 503.08 436.58 502.97 C 416.90 490.08 423.28 434.88 423.56 432.54 C 423.63 431.99 424.13 431.60 424.68 431.67 C 425.22 431.73 425.62 432.23 425.55 432.78 C 425.48 433.34 419.03 489.08 437.67 501.30 C 438.14 501.60 438.26 502.22 437.96 502.68 C 437.77 502.98 437.45 503.13 437.13 503.13 Z" fill="#5a6c1c" fill-rule="nonzero" node-id="271" stroke="none" target-height="71.46802" target-width="15.732422" target-x="422.37256" target-y="431.666"></path><path d="M 403.49 572.07 C 403.12 572.07 402.76 571.86 402.59 571.50 C 402.35 571.01 402.56 570.41 403.06 570.17 C 403.40 570.00 438.04 552.92 469.72 509.69 C 470.05 509.25 470.68 509.15 471.12 509.48 C 471.56 509.80 471.66 510.43 471.34 510.87 C 439.34 554.53 404.28 571.80 403.93 571.97 C 403.79 572.03 403.64 572.07 403.49 572.07 Z" fill="#5a6c1c" fill-rule="nonzero" node-id="273" stroke="none" target-height="62.771545" target-width="68.96799" target-x="402.54913" target-y="509.29547"></path><path d="M 155.71 572.31 C 141.05 572.31 110.69 570.09 102.43 552.39 C 102.19 551.89 102.41 551.30 102.91 551.06 C 103.41 550.83 104.01 551.05 104.24 551.55 C 114.44 573.40 163.03 570.11 163.52 570.07 C 164.08 570.03 164.55 570.44 164.59 570.99 C 164.63 571.54 164.22 572.02 163.66 572.06 C 163.19 572.10 160.18 572.31 155.71 572.31 Z" fill="#5a6c1c" fill-rule="nonzero" node-id="275" stroke="none" target-height="21.275696" target-width="62.195755" target-x="102.39325" target-y="551.03033"></path><path d="M 187.73 596.67 C 187.49 596.67 187.25 596.58 187.05 596.41 C 186.65 596.03 186.62 595.40 186.99 594.99 C 187.17 594.80 204.45 575.56 193.38 552.40 C 193.14 551.90 193.35 551.30 193.85 551.07 C 194.35 550.83 194.94 551.04 195.18 551.54 C 206.85 575.94 188.65 596.14 188.47 596.35 C 188.27 596.56 188.00 596.67 187.73 596.67 Z" fill="#5a6c1c" fill-rule="nonzero" node-id="277" stroke="none" target-height="45.644836" target-width="12.302902" target-x="186.72986" target-y="551.02515"></path><path d="M 227.25 661.42 C 204.78 661.42 179.86 645.32 178.57 644.48 C 178.11 644.17 177.98 643.55 178.29 643.09 C 178.59 642.63 179.21 642.50 179.67 642.80 C 180.05 643.05 218.04 667.60 241.55 656.50 C 242.05 656.27 242.65 656.48 242.88 656.98 C 243.12 657.48 242.90 658.08 242.41 658.31 C 237.72 660.52 232.55 661.42 227.25 661.42 Z" fill="#5a6c1c" fill-rule="nonzero" node-id="279" stroke="none" target-height="18.76355" target-width="64.77525" target-x="178.144" target-y="642.6594"></path><path d="M 918.82 758.84 L 44.58 758.84 C 40.83 758.84 37.76 755.77 37.76 752.01 L 37.76 752.01 C 37.76 748.26 40.83 745.19 44.58 745.19 L 918.82 745.19 C 922.57 745.19 925.64 748.26 925.64 752.01 L 925.64 752.01 C 925.64 755.77 922.57 758.84 918.82 758.84 Z" fill="#26205c" fill-rule="nonzero" node-id="281" stroke="none" target-height="13.642029" target-width="887.874" target-x="37.763" target-y="745.194"></path><path d="M 270.59 707.24 L 272.32 692.44 L 308.45 692.44 L 307.11 708.78 Z" fill="#ffb7b7" fill-rule="nonzero" group-id="2" node-id="285" stroke="none" target-height="16.337952" target-width="37.867004" target-x="270.586" target-y="692.439"></path><path d="M 269.81 706.44 L 268.47 715.50 C 268.47 715.50 240.02 717.04 219.26 744.72 L 308.45 744.72 L 308.45 706.66 L 269.81 706.44 Z" fill="#26205c" fill-rule="nonzero" group-id="2" node-id="287" stroke="none" target-height="38.281006" target-width="89.188995" target-x="219.264" target-y="706.441"></path><g clip-path="url(#XMLID_3_)" group-id="2,13" node-id="289"><path d="M 188.12 740.11 L 349.97 740.11 L 349.97 742.42 L 188.12 742.42 Z" fill="#ffffff" fill-rule="nonzero" group-id="2,13" node-id="291" stroke="none" target-height="2.3070068" target-width="161.84799" target-x="188.124" target-y="740.109"></path></g><path d="M 404.37 707.24 L 402.64 692.44 L 366.50 692.44 L 367.85 708.78 Z" fill="#ffb7b7" fill-rule="nonzero" group-id="2" node-id="294" stroke="none" target-height="16.337952" target-width="37.867004" target-x="366.503" target-y="692.439"></path><path d="M 405.15 706.44 L 406.48 715.50 C 406.48 715.50 434.93 717.04 455.69 744.72 L 366.50 744.72 L 366.50 706.66 L 405.15 706.44 Z" fill="#26205c" fill-rule="nonzero" group-id="2" node-id="296" stroke="none" target-height="38.281006" target-width="89.188995" target-x="366.503" target-y="706.441"></path><g clip-path="url(#SVGID_1_)" group-id="2,14" node-id="298"><path d="M 486.83 742.42 L 324.98 742.42 L 324.98 740.11 L 486.83 740.11 Z" fill="#ffffff" fill-rule="nonzero" group-id="2,14" node-id="300" stroke-linecap="butt" stroke-width="1" target-height="2.3070068" target-width="161.84799" target-x="324.98343" target-y="740.10864"></path></g><path d="M 287.69 460.04 L 261.17 698.97 L 311.02 698.97 L 326.78 501.76 L 333.65 501.76 L 361.50 698.97 L 411.10 698.97 L 370.22 457.16 Z" fill="#26205c" fill-rule="nonzero" group-id="2" node-id="303" stroke="none" target-height="241.81601" target-width="149.931" target-x="261.167" target-y="457.158"></path><g clip-path="url(#SVGID_5_)" group-id="2,15" node-id="305"><path d="M 270.59 462.60 C 270.59 462.60 293.41 476.76 385.44 466.48 L 385.44 457.16 L 273.94 457.16 L 270.59 462.60 Z" fill="#26205c" fill-rule="nonzero" group-id="2,15" node-id="307" stroke="none" target-height="13.060394" target-width="114.850006" target-x="270.586" target-y="457.158"></path></g><path d="M 388.64 351.55 C 388.61 351.41 388.57 351.28 388.53 351.14 C 386.14 343.11 378.76 337.60 370.38 337.60 L 331.39 337.60 L 328.63 337.60 L 291.21 337.60 C 283.19 337.60 275.77 342.08 272.23 349.28 C 271.87 350.03 271.61 350.68 271.53 351.17 C 271.18 353.12 265.20 368.02 260.44 379.73 C 255.35 392.23 259.22 406.75 270.15 414.65 C 274.44 417.75 279.49 419.65 285.18 418.72 L 287.69 462.55 C 287.69 462.55 316.10 464.28 330.04 464.28 C 343.98 464.28 371.12 462.46 371.12 462.46 L 374.85 418.72 C 380.54 419.65 385.59 417.75 389.88 414.65 C 400.82 406.75 404.72 392.24 399.69 379.71 C 395.04 368.12 389.19 353.44 388.64 351.55 Z" fill="#5a78ec" fill-rule="nonzero" group-id="2" node-id="310" stroke="none" target-height="126.672" target-width="143.55008" target-x="258.2628" target-y="337.604"></path><g clip-path="url(#XMLID_5_)" group-id="2,16" node-id="312"><path d="M 385.32 426.08 L 283.81 422.28 L 285.18 418.07 L 374.25 418.23 Z" fill="#4c6ac8" fill-rule="nonzero" group-id="2,16" node-id="314" stroke="none" target-height="8.009003" target-width="101.508026" target-x="283.813" target-y="418.07"></path></g><g clip-path="url(#XMLID_5_)" group-id="2,17" node-id="317"><path d="M 344.65 389.12 L 286.35 387.37 L 292.67 369.12 L 292.29 383.93 Z" fill="#4c6ac8" fill-rule="nonzero" group-id="2,17" node-id="319" stroke="none" target-height="19.998016" target-width="58.304993" target-x="286.345" target-y="369.123"></path></g><path d="M 345.74 389.69 C 345.74 389.69 359.58 383.49 371.12 391.36 C 371.12 391.36 370.22 399.75 358.69 405.52 C 358.69 405.52 351.80 397.48 345.74 389.69 Z" fill="#ff9595" fill-rule="nonzero" group-id="2" node-id="322" stroke="none" target-height="18.149078" target-width="25.372986" target-x="345.743" target-y="387.37192"></path><path d="M 349.45 304.61 C 349.45 315.82 340.36 324.91 329.15 324.91 C 317.94 324.91 308.85 315.82 308.85 304.61 C 308.85 293.39 317.94 284.31 329.15 284.31 C 340.36 284.31 349.45 293.39 349.45 304.61 Z" fill="#ffb7b7" fill-rule="nonzero" group-id="2" node-id="324" stroke="none" target-height="40.600006" target-width="40.600006" target-x="308.848" target-y="284.306"></path><path d="M 309.02 307.23 C 309.02 307.23 316.34 293.78 320.96 300.31 C 325.57 306.85 332.88 301.20 335.95 298.26 C 339.02 295.32 344.40 303.77 348.24 307.23 C 352.09 310.69 354.02 290.32 344.02 283.01 C 334.03 275.71 332.92 277.63 328.48 280.32 C 324.03 283.01 313.29 277.44 310.22 286.28 C 307.14 295.12 303.26 296.85 309.02 307.23 Z" fill="#26205c" fill-rule="nonzero" group-id="2" node-id="326" stroke="none" target-height="29.68924" target-width="45.271423" target-x="306.05585" target-y="277.9194"></path><path d="M 342.79 390.12 C 342.78 390.12 342.77 390.12 342.76 390.12 L 284.95 388.33 L 291.73 368.80 C 291.91 368.27 292.48 368.00 293.00 368.18 C 293.52 368.36 293.80 368.93 293.62 369.45 L 287.73 386.41 L 342.82 388.12 C 343.38 388.14 343.81 388.60 343.79 389.15 C 343.78 389.69 343.33 390.12 342.79 390.12 Z" fill="#232323" fill-rule="nonzero" group-id="2" node-id="328" stroke="none" target-height="21.942017" target-width="58.837982" target-x="284.954" target-y="368.179"></path><path d="M 371.12 419.23 L 333.17 419.23 C 332.62 419.23 332.17 418.78 332.17 418.23 C 332.17 417.68 332.62 417.23 333.17 417.23 L 371.12 417.23 C 371.67 417.23 372.12 417.68 372.12 418.23 C 372.12 418.78 371.67 419.23 371.12 419.23 Z" fill="#232323" fill-rule="nonzero" group-id="2" node-id="330" stroke="none" target-height="2" target-width="39.941986" target-x="332.174" target-y="417.232"></path><path d="M 287.61 419.23 C 287.13 419.23 286.71 418.89 286.62 418.40 C 286.53 417.86 286.90 417.34 287.44 417.25 L 355.79 405.60 C 356.33 405.50 356.85 405.87 356.94 406.42 C 357.04 406.96 356.67 407.48 356.12 407.57 L 287.78 419.22 C 287.72 419.23 287.67 419.23 287.61 419.23 Z" fill="#232323" fill-rule="nonzero" group-id="2" node-id="332" stroke="none" target-height="13.630981" target-width="70.31799" target-x="286.624" target-y="405.601"></path><path d="M 266.52 693.44 C 266.48 693.44 266.45 693.44 266.41 693.43 C 265.86 693.38 265.46 692.88 265.52 692.34 L 287.75 480.65 C 287.79 480.30 288.01 480.00 288.33 479.85 C 299.05 474.85 304.31 467.00 304.37 466.92 C 304.67 466.46 305.29 466.33 305.75 466.63 C 306.21 466.93 306.34 467.55 306.04 468.01 C 305.82 468.35 300.60 476.17 289.69 481.42 L 267.51 692.54 C 267.46 693.06 267.02 693.44 266.52 693.44 Z" fill="#ffffff" fill-rule="nonzero" group-id="2" node-id="334" stroke="none" target-height="226.95114" target-width="40.660645" target-x="265.521" target-y="466.48788"></path><path d="M 405.57 693.44 C 405.09 693.44 404.67 693.09 404.58 692.61 L 369.07 481.44 C 358.13 476.19 352.90 468.35 352.68 468.02 C 352.37 467.56 352.50 466.94 352.96 466.63 C 353.43 466.33 354.05 466.46 354.35 466.92 C 354.40 467.00 359.66 474.85 370.39 479.85 C 370.69 479.99 370.90 480.27 370.95 480.59 L 406.56 692.27 C 406.65 692.82 406.28 693.34 405.74 693.43 C 405.68 693.43 405.62 693.44 405.57 693.44 Z" fill="#ffffff" fill-rule="nonzero" group-id="2" node-id="336" stroke="none" target-height="226.95053" target-width="54.024994" target-x="352.534" target-y="466.4885"></path><path d="M 802.42 745.19 L 543.02 745.19 C 530.88 745.19 520.95 735.26 520.95 723.12 L 520.95 345.07 C 520.95 332.93 530.88 323.00 543.02 323.00 L 802.42 323.00 C 814.55 323.00 824.49 332.93 824.49 345.07 L 824.49 723.12 C 824.48 735.26 814.55 745.19 802.42 745.19 Z" fill="#5a78ec" fill-rule="nonzero" group-id="3" node-id="341" stroke="none" target-height="422.195" target-width="303.537" target-x="520.948" target-y="322.998"></path><g clip-path="url(#XMLID_13_)" group-id="3,18" node-id="343"><path d="M 439.80 268.23 L 828.65 268.23 L 828.65 474.38 L 439.80 474.38 Z" fill="#ffffff" fill-rule="nonzero" group-id="3,18" node-id="345" stroke="none" target-height="206.147" target-width="388.85303" target-x="439.8" target-y="268.229"></path></g><g clip-path="url(#XMLID_13_)" group-id="3,19" node-id="348"><path d="M 672.72 325.64 C 672.72 408.04 605.92 474.84 523.51 474.84 C 441.11 474.84 374.31 408.04 374.31 325.64 C 374.31 243.23 441.11 176.43 523.51 176.43 C 605.92 176.43 672.72 243.23 672.72 325.64 Z" fill="#ff6666" fill-rule="nonzero" group-id="3,19" node-id="350" stroke="#ff6666" stroke-linecap="butt" stroke-width="1" target-height="298.406" target-width="298.406" target-x="374.31" target-y="176.434"></path></g><g clip-path="url(#XMLID_13_)" group-id="3,20" node-id="353"><path d="M 671.72 271.24 L 671.72 472.38 L 477.98 472.38 L 477.98 271.24 L 671.72 271.24 M 673.72 269.24 L 475.98 269.24 L 475.98 474.38 L 673.72 474.38 L 673.72 269.24 L 673.72 269.24 Z" fill="#ff6666" fill-rule="nonzero" group-id="3,20" node-id="355" stroke="none" target-height="205.13702" target-width="197.737" target-x="475.979" target-y="269.24"></path></g><path d="M 796.32 353.02 L 687.05 353.02 C 685.94 353.02 685.03 352.12 685.03 351.00 L 685.03 339.50 C 685.03 338.39 685.94 337.48 687.05 337.48 L 796.32 337.48 C 797.43 337.48 798.34 338.39 798.34 339.50 L 798.34 351.00 C 798.34 352.12 797.43 353.02 796.32 353.02 Z" fill="#ffd840" fill-rule="nonzero" group-id="3" node-id="358" stroke="none" target-height="15.536987" target-width="113.30499" target-x="685.032" target-y="337.484"></path><path d="M 785.26 378.79 L 687.12 378.79 C 685.97 378.79 685.03 377.86 685.03 376.70 L 685.03 366.09 C 685.03 364.94 685.97 364.01 687.12 364.01 L 785.26 364.01 C 786.41 364.01 787.35 364.94 787.35 366.09 L 787.35 376.70 C 787.35 377.86 786.41 378.79 785.26 378.79 Z" fill="#ffebe5" fill-rule="nonzero" group-id="3" node-id="360" stroke="none" target-height="14.778992" target-width="102.315" target-x="685.032" target-y="364.01"></path><path d="M 685.03 395.84 L 750.21 395.84 L 750.21 461.02 L 685.03 461.02 Z" fill="#ffebe5" fill-rule="nonzero" group-id="3" node-id="362" stroke="none" target-height="65.178986" target-width="65.179016" target-x="685.032" target-y="395.842"></path><path d="M 761.77 523.17 L 547.66 523.17 C 545.88 523.17 544.44 521.73 544.44 519.95 L 544.44 501.38 C 544.44 499.60 545.88 498.16 547.66 498.16 L 761.77 498.16 C 763.55 498.16 764.99 499.60 764.99 501.38 L 764.99 519.95 C 764.99 521.73 763.55 523.17 761.77 523.17 Z" fill="#ffffff" fill-rule="nonzero" group-id="3" node-id="364" stroke="none" target-height="25.01004" target-width="220.547" target-x="544.442" target-y="498.158"></path><path d="M 677.89 565.69 L 547.66 565.69 C 545.88 565.69 544.44 564.24 544.44 562.47 L 544.44 543.90 C 544.44 542.12 545.88 540.68 547.66 540.68 L 677.89 540.68 C 679.67 540.68 681.12 542.12 681.12 543.90 L 681.12 562.47 C 681.12 564.24 679.67 565.69 677.89 565.69 Z" fill="#ffffff" fill-rule="nonzero" group-id="3" node-id="366" stroke="none" target-height="25.009949" target-width="136.67401" target-x="544.442" target-y="540.676"></path><g clip-path="url(#SVGID_8_)" group-id="3,21" node-id="368"><path d="M 618.72 533.62 L 717.62 533.62 L 717.62 734.62 L 618.72 734.62 Z" fill="#ffffff" fill-rule="nonzero" group-id="3,21" node-id="370" stroke="none" target-height="200.99597" target-width="98.90497" target-x="618.716" target-y="533.625"></path></g><path d="M 692.23 652.51 C 692.23 693.11 659.32 726.02 618.72 726.02 C 578.11 726.02 545.20 693.11 545.20 652.51 C 545.20 611.91 578.11 578.99 618.72 578.99 C 659.32 578.99 692.23 611.91 692.23 652.51 Z" fill="none" group-id="3" node-id="373" stroke="#ffffff" stroke-linecap="butt" stroke-width="2" target-height="147.03198" target-width="147.03198" target-x="545.2" target-y="578.992"></path><path d="M 535.13 692.80 C 534.58 692.80 534.13 692.35 534.13 691.80 L 534.13 330.53 C 534.13 314.94 546.82 302.25 562.42 302.25 L 811.60 302.25 C 827.20 302.25 839.88 314.94 839.88 330.53 L 839.88 464.27 C 839.88 464.83 839.44 465.27 838.88 465.27 C 838.33 465.27 837.88 464.83 837.88 464.27 L 837.88 330.53 C 837.88 316.04 826.09 304.25 811.60 304.25 L 562.42 304.25 C 547.92 304.25 536.13 316.04 536.13 330.53 L 536.13 691.80 C 536.13 692.35 535.68 692.80 535.13 692.80 Z" fill="#232323" fill-rule="nonzero" group-id="3" node-id="375" stroke="none" target-height="390.55103" target-width="305.753" target-x="534.132" target-y="302.245"></path><path d="M 289.03 343.55 L 271.60 319.45 L 152.40 319.45 C 146.10 319.45 140.99 314.34 140.99 308.04 L 140.99 249.36 C 140.99 243.06 146.10 237.95 152.40 237.95 L 277.62 237.95 C 283.92 237.95 289.03 243.06 289.03 249.36 L 289.03 343.55 Z" fill="#ff6666" fill-rule="nonzero" node-id="378" stroke="none" target-height="105.599" target-width="148.042" target-x="140.99" target-y="237.948"></path><path d="M 207.75 304.96 L 207.75 304.96 C 206.30 306.41 203.93 306.41 202.47 304.96 L 177.03 279.51 C 175.58 278.06 175.58 275.69 177.03 274.24 L 177.03 274.24 C 178.48 272.78 180.85 272.78 182.31 274.24 L 207.75 299.68 C 209.21 301.13 209.21 303.51 207.75 304.96 Z" fill="#ffffff" fill-rule="nonzero" node-id="380" stroke="none" target-height="32.90399" target-width="32.90399" target-x="175.93901" target-y="273.147"></path><path d="M 256.52 250.87 L 256.52 250.87 C 257.97 252.32 257.97 254.69 256.52 256.15 L 207.71 304.96 C 206.25 306.41 203.88 306.41 202.43 304.96 L 202.43 304.96 C 200.97 303.51 200.97 301.13 202.43 299.68 L 251.24 250.87 C 252.69 249.42 255.07 249.42 256.52 250.87 Z" fill="#ffffff" fill-rule="nonzero" node-id="382" stroke="none" target-height="56.27124" target-width="56.271973" target-x="201.337" target-y="249.77875"></path><path d="M 629.60 254.37 L 434.65 254.37 C 428.26 254.37 423.03 249.14 423.03 242.75 L 423.03 117.44 C 423.03 111.05 428.26 105.82 434.65 105.82 L 629.60 105.82 C 636.00 105.82 641.23 111.05 641.23 117.44 L 641.23 242.75 C 641.22 249.14 636.00 254.37 629.60 254.37 Z" fill="#eaeaea" fill-rule="nonzero" group-id="4" node-id="386" stroke="none" target-height="148.547" target-width="218.19598" target-x="423.029" target-y="105.821"></path><g clip-path="url(#XMLID_14_)" group-id="4,22" node-id="388"><path d="M 400.45 81.06 L 654.87 81.06 L 654.87 129.06 L 400.45 129.06 Z" fill="#ffd840" fill-rule="nonzero" group-id="4,22" node-id="390" stroke="none" target-height="48" target-width="254.41202" target-x="400.454" target-y="81.063"></path></g><path d="M 622.00 261.44 L 427.05 261.44 C 420.65 261.44 415.43 256.21 415.43 249.82 L 415.43 124.52 C 415.43 118.12 420.65 112.89 427.05 112.89 L 622.00 112.89 C 628.39 112.89 633.62 118.12 633.62 124.52 L 633.62 249.82 C 633.62 256.21 628.39 261.44 622.00 261.44 Z" fill="#f4f4f4" fill-rule="nonzero" group-id="5" node-id="396" stroke="none" target-height="148.547" target-width="218.19598" target-x="415.425" target-y="112.895"></path><g clip-path="url(#XMLID_15_)" group-id="5,23" node-id="398"><path d="M 392.85 88.14 L 647.26 88.14 L 647.26 136.14 L 392.85 136.14 Z" fill="#ff6666" fill-rule="nonzero" group-id="5,23" node-id="400" stroke="#ff6666" stroke-linecap="butt" stroke-width="1" target-height="47.999992" target-width="254.41199" target-x="392.851" target-y="88.137"></path></g><path d="M 610.88 267.76 L 415.93 267.76 C 409.54 267.76 404.31 262.53 404.31 256.14 L 404.31 130.83 C 404.31 124.44 409.54 119.21 415.93 119.21 L 610.88 119.21 C 617.28 119.21 622.51 124.44 622.51 130.83 L 622.51 256.14 C 622.50 262.53 617.28 267.76 610.88 267.76 Z" fill="#ffffff" fill-rule="nonzero" group-id="6" node-id="406" stroke="none" target-height="148.547" target-width="218.19598" target-x="404.31" target-y="119.211"></path><g clip-path="url(#XMLID_16_)" group-id="6,24" node-id="408"><path d="M 381.74 94.45 L 636.15 94.45 L 636.15 142.45 L 381.74 142.45 Z" fill="#5a78ec" fill-rule="nonzero" group-id="6,24" node-id="410" stroke="none" target-height="48" target-width="254.41199" target-x="381.735" target-y="94.453"></path></g><path d="M 423.03 242.23 C 423.01 242.23 422.99 242.23 422.97 242.23 C 422.15 242.20 421.50 241.50 421.53 240.68 C 421.58 239.21 423.03 204.57 440.43 188.73 C 446.50 183.20 453.81 180.65 462.15 181.13 C 473.31 181.77 479.40 189.37 485.86 197.42 C 492.26 205.41 498.88 213.66 511.18 215.63 C 521.70 217.31 526.70 205.84 532.47 192.55 C 539.58 176.21 547.62 157.69 568.50 157.09 C 582.94 156.66 595.31 166.96 605.14 187.67 C 605.50 188.41 605.18 189.31 604.43 189.67 C 603.68 190.02 602.78 189.70 602.43 188.95 C 593.15 169.42 581.75 159.73 568.59 160.09 C 549.62 160.63 541.97 178.23 535.22 193.75 C 529.21 207.58 523.53 220.64 510.71 218.59 C 497.26 216.44 489.96 207.33 483.52 199.30 C 477.23 191.46 471.80 184.69 461.97 184.12 C 454.46 183.69 447.90 185.99 442.45 190.94 C 425.98 205.94 424.54 240.44 424.53 240.79 C 424.50 241.60 423.83 242.23 423.03 242.23 Z" fill="#5a78ec" fill-rule="nonzero" node-id="414" stroke="none" target-height="85.144" target-width="183.75555" target-x="421.529" target-y="157.088"></path><path d="M 457.54 241.23 C 457.26 241.23 457.04 241.01 457.04 240.73 L 457.04 183.88 C 457.04 183.61 457.26 183.38 457.54 183.38 C 457.81 183.38 458.04 183.61 458.04 183.88 L 458.04 240.73 C 458.04 241.01 457.81 241.23 457.54 241.23 Z" fill="#5a78ec" fill-rule="nonzero" node-id="416" stroke="none" target-height="57.849" target-width="1" target-x="457.037" target-y="183.383"></path><path d="M 513.41 241.23 C 513.13 241.23 512.91 241.01 512.91 240.73 L 512.91 217.29 C 512.91 217.02 513.13 216.79 513.41 216.79 C 513.68 216.79 513.91 217.02 513.91 217.29 L 513.91 240.73 C 513.91 241.01 513.68 241.23 513.41 241.23 Z" fill="#5a78ec" fill-rule="nonzero" node-id="418" stroke="none" target-height="24.436996" target-width="1" target-x="512.907" target-y="216.795"></path><path d="M 568.44 241.23 C 568.17 241.23 567.94 241.01 567.94 240.73 L 567.94 158.59 C 567.94 158.31 568.17 158.09 568.44 158.09 C 568.72 158.09 568.94 158.31 568.94 158.59 L 568.94 240.73 C 568.94 241.01 568.72 241.23 568.44 241.23 Z" fill="#5a78ec" fill-rule="nonzero" node-id="420" stroke="none" target-height="83.14499" target-width="1" target-x="567.942" target-y="158.087"></path><path d="M 462.08 182.62 C 462.08 185.13 460.05 187.17 457.54 187.17 C 455.03 187.17 452.99 185.13 452.99 182.62 C 452.99 180.11 455.03 178.07 457.54 178.07 C 460.05 178.07 462.08 180.11 462.08 182.62 Z" fill="#ff6666" fill-rule="nonzero" node-id="422" stroke="none" target-height="9.093994" target-width="9.094025" target-x="452.99" target-y="178.074"></path><path d="M 517.95 216.22 C 517.95 218.73 515.92 220.77 513.41 220.77 C 510.90 220.77 508.86 218.73 508.86 216.22 C 508.86 213.71 510.90 211.67 513.41 211.67 C 515.92 211.67 517.95 213.71 517.95 216.22 Z" fill="#ff6666" fill-rule="nonzero" node-id="424" stroke="none" target-height="9.094009" target-width="9.093994" target-x="508.86" target-y="211.674"></path><path d="M 572.99 158.58 C 572.99 161.09 570.95 163.12 568.44 163.12 C 565.93 163.12 563.89 161.09 563.89 158.58 C 563.89 156.07 565.93 154.03 568.44 154.03 C 570.95 154.03 572.99 156.07 572.99 158.58 Z" fill="#ff6666" fill-rule="nonzero" node-id="426" stroke="none" target-height="9.093994" target-width="9.093994" target-x="563.895" target-y="154.03"></path><path d="M 667.09 651.22 C 667.09 654.64 664.32 657.41 660.90 657.41 C 657.49 657.41 654.72 654.64 654.72 651.22 C 654.72 647.80 657.49 645.03 660.90 645.03 C 664.32 645.03 667.09 647.80 667.09 651.22 Z" fill="#ff6666" fill-rule="nonzero" group-id="7" node-id="430" stroke="#ff6666" stroke-linecap="butt" stroke-width="1" target-height="12.377991" target-width="12.377991" target-x="654.716" target-y="645.032"></path><path d="M 667.09 678.50 C 667.09 681.92 664.32 684.69 660.90 684.69 C 657.49 684.69 654.72 681.92 654.72 678.50 C 654.72 675.09 657.49 672.32 660.90 672.32 C 664.32 672.32 667.09 675.09 667.09 678.50 Z" fill="#ff6666" fill-rule="nonzero" group-id="7" node-id="432" stroke="#ff6666" stroke-linecap="butt" stroke-width="1" target-height="12.377991" target-width="12.377991" target-x="654.716" target-y="672.316"></path><path d="M 695.45 678.50 C 695.45 681.92 692.68 684.69 689.26 684.69 C 685.84 684.69 683.07 681.92 683.07 678.50 C 683.07 675.09 685.84 672.32 689.26 672.32 C 692.68 672.32 695.45 675.09 695.45 678.50 Z" fill="#ff6666" fill-rule="nonzero" group-id="7" node-id="434" stroke="#ff6666" stroke-linecap="butt" stroke-width="1" target-height="12.377991" target-width="12.378052" target-x="683.074" target-y="672.316"></path><path d="M 723.81 678.50 C 723.81 681.92 721.04 684.69 717.62 684.69 C 714.20 684.69 711.43 681.92 711.43 678.50 C 711.43 675.09 714.20 672.32 717.62 672.32 C 721.04 672.32 723.81 675.09 723.81 678.50 Z" fill="#ff6666" fill-rule="nonzero" group-id="7" node-id="436" stroke="#ff6666" stroke-linecap="butt" stroke-width="1" target-height="12.377991" target-width="12.377991" target-x="711.432" target-y="672.316"></path><path d="M 695.45 705.79 C 695.45 709.21 692.68 711.98 689.26 711.98 C 685.84 711.98 683.07 709.21 683.07 705.79 C 683.07 702.37 685.84 699.60 689.26 699.60 C 692.68 699.60 695.45 702.37 695.45 705.79 Z" fill="#ff6666" fill-rule="nonzero" group-id="7" node-id="438" stroke="#ff6666" stroke-linecap="butt" stroke-width="1" target-height="12.378052" target-width="12.378052" target-x="683.074" target-y="699.6"></path><path d="M 723.81 705.79 C 723.81 709.21 721.04 711.98 717.62 711.98 C 714.20 711.98 711.43 709.21 711.43 705.79 C 711.43 702.37 714.20 699.60 717.62 699.60 C 721.04 699.60 723.81 702.37 723.81 705.79 Z" fill="#ff6666" fill-rule="nonzero" group-id="7" node-id="440" stroke="#ff6666" stroke-linecap="butt" stroke-width="1" target-height="12.378052" target-width="12.377991" target-x="711.432" target-y="699.6"></path><path d="M 667.09 705.79 C 667.09 709.21 664.32 711.98 660.90 711.98 C 657.49 711.98 654.72 709.21 654.72 705.79 C 654.72 702.37 657.49 699.60 660.90 699.60 C 664.32 699.60 667.09 702.37 667.09 705.79 Z" fill="#ff6666" fill-rule="nonzero" group-id="7" node-id="442" stroke="#ff6666" stroke-linecap="butt" stroke-width="1" target-height="12.378052" target-width="12.377991" target-x="654.716" target-y="699.6"></path><path d="M 695.45 651.22 C 695.45 654.64 692.68 657.41 689.26 657.41 C 685.84 657.41 683.07 654.64 683.07 651.22 C 683.07 647.80 685.84 645.03 689.26 645.03 C 692.68 645.03 695.45 647.80 695.45 651.22 Z" fill="#ff6666" fill-rule="nonzero" group-id="7" node-id="444" stroke="#ff6666" stroke-linecap="butt" stroke-width="1" target-height="12.377991" target-width="12.378052" target-x="683.074" target-y="645.032"></path><path d="M 723.81 651.22 C 723.81 654.64 721.04 657.41 717.62 657.41 C 714.20 657.41 711.43 654.64 711.43 651.22 C 711.43 647.80 714.20 645.03 717.62 645.03 C 721.04 645.03 723.81 647.80 723.81 651.22 Z" fill="#ff6666" fill-rule="nonzero" group-id="7" node-id="446" stroke="#ff6666" stroke-linecap="butt" stroke-width="1" target-height="12.377991" target-width="12.377991" target-x="711.432" target-y="645.032"></path><path d="M 887.28 744.72 L 743.06 744.72 C 737.37 744.72 732.72 740.07 732.72 734.38 L 732.72 553.13 C 732.72 547.44 737.37 542.79 743.06 542.79 L 887.28 542.79 C 892.97 542.79 897.62 547.44 897.62 553.13 L 897.62 734.38 C 897.62 740.07 892.97 744.72 887.28 744.72 Z" fill="#ffffff" fill-rule="nonzero" group-id="7" node-id="448" stroke="none" target-height="201.935" target-width="164.90497" target-x="732.716" target-y="542.787"></path><path d="M 809.75 733.11 L 750.33 733.11 C 747.33 733.11 744.90 730.68 744.90 727.68 L 744.90 560.35 C 744.90 557.35 747.33 554.93 750.33 554.93 L 809.75 554.93 C 812.74 554.93 815.17 557.35 815.17 560.35 L 815.17 727.68 C 815.17 730.68 812.74 733.11 809.75 733.11 Z" fill="#ff6666" fill-rule="nonzero" group-id="7" node-id="450" stroke="#ff6666" stroke-linecap="butt" stroke-width="1" target-height="178.17798" target-width="70.26398" target-x="744.905" target-y="554.927"></path><path d="M 875.75 597.13 L 839.88 597.13 C 836.89 597.13 834.46 594.70 834.46 591.71 L 834.46 560.35 C 834.46 557.35 836.89 554.93 839.88 554.93 L 875.75 554.93 C 878.74 554.93 881.17 557.35 881.17 560.35 L 881.17 591.71 C 881.17 594.70 878.74 597.13 875.75 597.13 Z" fill="#ffd840" fill-rule="nonzero" group-id="7" node-id="452" stroke="none" target-height="42.198975" target-width="46.705994" target-x="834.463" target-y="554.927"></path><path d="M 879.05 613.22 L 834.46 613.22 C 833.91 613.22 833.46 612.77 833.46 612.22 C 833.46 611.67 833.91 611.22 834.46 611.22 L 879.05 611.22 C 879.61 611.22 880.05 611.67 880.05 612.22 C 880.05 612.77 879.61 613.22 879.05 613.22 Z" fill="#232323" fill-rule="nonzero" group-id="7" node-id="454" stroke="none" target-height="2" target-width="46.589966" target-x="833.463" target-y="611.221"></path><path d="M 854.17 624.52 L 834.46 624.52 C 833.91 624.52 833.46 624.07 833.46 623.52 C 833.46 622.97 833.91 622.52 834.46 622.52 L 854.17 622.52 C 854.72 622.52 855.17 622.97 855.17 623.52 C 855.17 624.07 854.72 624.52 854.17 624.52 Z" fill="#232323" fill-rule="nonzero" group-id="7" node-id="456" stroke="none" target-height="2" target-width="21.705017" target-x="833.463" target-y="622.519"></path><path d="M 875.64 624.52 L 864.27 624.52 C 863.72 624.52 863.27 624.07 863.27 623.52 C 863.27 622.97 863.72 622.52 864.27 622.52 L 875.64 622.52 C 876.20 622.52 876.64 622.97 876.64 623.52 C 876.64 624.07 876.20 624.52 875.64 624.52 Z" fill="#232323" fill-rule="nonzero" group-id="7" node-id="458" stroke="none" target-height="2" target-width="13.369019" target-x="863.274" target-y="622.519"></path><path d="M 886.50 635.82 L 834.46 635.82 C 833.91 635.82 833.46 635.37 833.46 634.82 C 833.46 634.26 833.91 633.82 834.46 633.82 L 886.50 633.82 C 887.06 633.82 887.50 634.26 887.50 634.82 C 887.50 635.37 887.06 635.82 886.50 635.82 Z" fill="#232323" fill-rule="nonzero" group-id="7" node-id="460" stroke="none" target-height="2" target-width="54.041992" target-x="833.463" target-y="633.815"></path><path d="M 860.48 647.11 L 834.46 647.11 C 833.91 647.11 833.46 646.66 833.46 646.11 C 833.46 645.56 833.91 645.11 834.46 645.11 L 860.48 645.11 C 861.04 645.11 861.48 645.56 861.48 646.11 C 861.48 646.66 861.04 647.11 860.48 647.11 Z" fill="#232323" fill-rule="nonzero" group-id="7" node-id="462" stroke="none" target-height="2" target-width="28.020996" target-x="833.463" target-y="645.112"></path><path d="M 843.31 658.41 L 834.46 658.41 C 833.91 658.41 833.46 657.96 833.46 657.41 C 833.46 656.86 833.91 656.41 834.46 656.41 L 843.31 656.41 C 843.86 656.41 844.31 656.86 844.31 657.41 C 844.31 657.96 843.86 658.41 843.31 658.41 Z" fill="#232323" fill-rule="nonzero" group-id="7" node-id="464" stroke="none" target-height="2" target-width="10.843018" target-x="833.463" target-y="656.409"></path><path d="M 875.64 658.41 L 850.38 658.41 C 849.83 658.41 849.38 657.96 849.38 657.41 C 849.38 656.86 849.83 656.41 850.38 656.41 L 875.64 656.41 C 876.20 656.41 876.64 656.86 876.64 657.41 C 876.64 657.96 876.20 658.41 875.64 658.41 Z" fill="#232323" fill-rule="nonzero" group-id="7" node-id="466" stroke="none" target-height="2" target-width="27.263977" target-x="849.379" target-y="656.409"></path><path d="M 915.05 541.62 C 915.05 551.79 906.81 560.04 896.63 560.04 C 886.46 560.04 878.22 551.79 878.22 541.62 C 878.22 531.45 886.46 523.20 896.63 523.20 C 906.81 523.20 915.05 531.45 915.05 541.62 Z" fill="#ff6666" fill-rule="nonzero" group-id="7" node-id="468" stroke="none" target-height="36.836" target-width="36.836" target-x="878.216" target-y="523.202"></path><path d="M 893.36 742.81 L 753.61 742.81 C 746.14 742.81 740.06 736.73 740.06 729.26 L 740.06 546.64 C 740.06 539.17 746.14 533.10 753.61 533.10 L 893.36 533.10 C 900.83 533.10 906.90 539.17 906.90 546.64 L 906.90 729.26 C 906.90 736.73 900.83 742.81 893.36 742.81 Z M 753.61 535.10 C 747.24 535.10 742.06 540.28 742.06 546.64 L 742.06 729.26 C 742.06 735.63 747.24 740.81 753.61 740.81 L 893.36 740.81 C 899.73 740.81 904.90 735.63 904.90 729.26 L 904.90 546.64 C 904.90 540.28 899.73 535.10 893.36 535.10 L 753.61 535.10 Z" fill="#232323" fill-rule="nonzero" group-id="7" node-id="470" stroke="none" target-height="209.71301" target-width="166.84204" target-x="740.063" target-y="533.096"></path><path d="M 263.38 310.21 L 146.22 310.21 C 139.95 310.21 134.82 305.08 134.82 298.82 L 134.82 243.28 C 134.82 237.01 139.95 231.88 146.22 231.88 L 263.38 231.88 C 269.65 231.88 274.78 237.01 274.78 243.28 L 274.78 298.82 C 274.78 305.08 269.65 310.21 263.38 310.21 Z" fill="none" node-id="473" stroke="#232323" stroke-linecap="round" stroke-width="2" target-height="78.32901" target-width="139.95999" target-x="134.82" target-y="231.884"></path><path d="M 535.13 362.23 L 438.72 362.23 C 438.16 362.23 437.72 361.78 437.72 361.23 L 437.72 273.31 C 437.72 272.76 438.16 272.31 438.72 272.31 C 439.27 272.31 439.72 272.76 439.72 273.31 L 439.72 360.23 L 535.13 360.23 C 535.68 360.23 536.13 360.68 536.13 361.23 C 536.13 361.78 535.68 362.23 535.13 362.23 Z" fill="#232323" fill-rule="nonzero" node-id="475" stroke="none" target-height="89.915985" target-width="98.416016" target-x="437.716" target-y="272.315"></path><path d="M 449.45 267.88 C 449.45 273.81 444.65 278.62 438.72 278.62 C 432.79 278.62 427.98 273.81 427.98 267.88 C 427.98 261.95 432.79 257.15 438.72 257.15 C 444.65 257.15 449.45 261.95 449.45 267.88 Z" fill="#ff6666" fill-rule="nonzero" node-id="477" stroke="none" target-height="21.473999" target-width="21.473999" target-x="427.979" target-y="257.147"></path><path d="M 258.22 151.97 C 258.22 163.89 248.56 173.55 236.63 173.55 C 224.71 173.55 215.04 163.89 215.04 151.97 C 215.04 140.04 224.71 130.38 236.63 130.38 C 248.56 130.38 258.22 140.04 258.22 151.97 Z" fill="none" node-id="479" stroke="#5a78ec" stroke-linecap="butt" stroke-width="6" target-height="43.177994" target-width="43.17798" target-x="215.044" target-y="130.376"></path><path d="M 102.56 415.34 L 85.22 411.14 C 78.30 409.46 75.79 400.91 80.70 395.75 L 93.01 382.84 C 97.93 377.68 106.59 379.78 108.60 386.62 L 113.62 403.73 C 115.63 410.57 109.49 417.02 102.56 415.34 Z" fill="none" node-id="481" stroke="#5a78ec" stroke-linecap="butt" stroke-width="6" target-height="35.591583" target-width="35.842323" target-x="78.15174" target-y="380.00906"></path><path d="M 906.76 455.74 L 906.76 465.06 L 899.06 465.06 L 899.06 455.74 L 889.74 455.74 L 889.74 448.03 L 899.06 448.03 L 899.06 438.71 L 906.76 438.71 L 906.76 448.03 L 916.08 448.03 L 916.08 455.74 L 906.76 455.74 Z" fill="#5a78ec" fill-rule="nonzero" group-id="8" node-id="485" stroke="none" target-height="26.345001" target-width="26.345032" target-x="889.738" target-y="438.711"></path></svg>