<svg t="1680110947345" class="icon" viewBox="0 0 1024 1024" version="1.1" xmlns="http://www.w3.org/2000/svg" p-id="15962" width="200" height="200"><path d="M735.914667 739.555556c0.341333 4.693333 0.512 9.443556 0.512 14.222222 0 117.816889-101.888 213.333333-227.555556 213.333333s-227.555556-95.516444-227.555555-213.333333c0-4.778667 0.170667-9.528889 0.483555-14.222222h454.115556zM508.871111 56.888889a145.635556 145.635556 0 0 1 143.843556 168.533333L579.982222 682.666667h-142.222222L364.999111 225.422222A145.635556 145.635556 0 0 1 508.871111 56.888889z m-182.556444 57.912889a201.443556 201.443556 0 0 0-17.493334 119.580444L380.131556 682.666667H280.120889L123.221333 310.613333A151.324444 151.324444 0 0 1 220.956444 106.382222a149.674667 149.674667 0 0 1 105.358223 8.448z m469.361777-8.448a151.324444 151.324444 0 0 1 100.096 198.343111l-2.360888 5.944889L736.483556 682.666667h-100.039112l71.338667-448.284445a201.415111 201.415111 0 0 0-13.937778-111.786666l-3.527111-7.793778a149.674667 149.674667 0 0 1 105.358222-8.448z" fill="#3aa06f" p-id="15963"></path></svg>