<svg t="1681808073926" class="icon" viewBox="0 0 1024 1024" version="1.1" xmlns="http://www.w3.org/2000/svg" p-id="2327" width="200" height="200"><path d="M864 784c35.3456 0 64 28.6544 64 64v16c0 35.3456-28.6544 64-64 64H160c-35.3456 0-64-28.6544-64-64v-16c0-35.3456 28.6544-64 64-64h40V382.4512h-40c-35.3456 0-64-28.6544-64-64v-20.3488a64 64 0 0 1 40.64-59.584L488.872 100.416a64 64 0 0 1 46.7456 0.0096l351.7664 138.0832A64 64 0 0 1 928 298.0832v20.368c0 35.3456-28.6544 64-64 64h-40V784h40z m0 48H160c-8.8368 0-16 7.1632-16 16v16c0 8.8368 7.1632 16 16 16h704c8.8368 0 16-7.1632 16-16v-16c0-8.8368-7.1632-16-16-16zM344 382.4512h-96V784h96V382.4512z m144 0h-96V784h96V382.4512z m144 0h-96V784h96V382.4512zM506.3936 145.104L154.16 283.2064a16 16 0 0 0-10.16 14.896v20.3488c0 8.8368 7.1632 16 16 16h704c8.8368 0 16-7.1632 16-16v-20.368a16 16 0 0 0-10.1536-14.8944L518.08 145.1056a16 16 0 0 0-11.6864-0.0016zM776 382.4512h-96V784h96V382.4512z" fill="#2c2c2c" p-id="2328"></path></svg>